<mxfile host="app.diagrams.net" modified="2022-06-09T15:56:07.452Z" agent="5.0 (Windows NT 10.0; Win64; x64) AppleWebKit/537.36 (KHTML, like Gecko) Chrome/102.0.5005.63 Safari/537.36 Edg/102.0.1245.33" etag="7lBH5BElrZzsoLBgJwZS" version="18.0.7" type="github">
  <diagram id="RLS9fAI8l67d2oc6Fv7c" name="Page-1">
    <mxGraphModel dx="782" dy="539" grid="0" gridSize="1" guides="1" tooltips="1" connect="1" arrows="1" fold="1" page="1" pageScale="1" pageWidth="827" pageHeight="1169" math="0" shadow="0">
      <root>
        <mxCell id="0" />
        <mxCell id="1" parent="0" />
        <mxCell id="DnV5dPx3yKDnzfPeq301-7" style="edgeStyle=orthogonalEdgeStyle;rounded=0;orthogonalLoop=1;jettySize=auto;html=1;entryX=0.5;entryY=0;entryDx=0;entryDy=0;fontSize=14;endArrow=none;endFill=0;" edge="1" parent="1" source="DnV5dPx3yKDnzfPeq301-1" target="DnV5dPx3yKDnzfPeq301-4">
          <mxGeometry relative="1" as="geometry" />
        </mxCell>
        <mxCell id="DnV5dPx3yKDnzfPeq301-9" style="edgeStyle=orthogonalEdgeStyle;rounded=0;orthogonalLoop=1;jettySize=auto;html=1;fontSize=14;endArrow=none;endFill=0;" edge="1" parent="1" source="DnV5dPx3yKDnzfPeq301-1" target="DnV5dPx3yKDnzfPeq301-5">
          <mxGeometry relative="1" as="geometry" />
        </mxCell>
        <mxCell id="DnV5dPx3yKDnzfPeq301-11" style="edgeStyle=orthogonalEdgeStyle;rounded=0;orthogonalLoop=1;jettySize=auto;html=1;entryX=0.5;entryY=0;entryDx=0;entryDy=0;fontSize=14;endArrow=none;endFill=0;" edge="1" parent="1" source="DnV5dPx3yKDnzfPeq301-1" target="DnV5dPx3yKDnzfPeq301-6">
          <mxGeometry relative="1" as="geometry">
            <Array as="points">
              <mxPoint x="440" y="185" />
              <mxPoint x="710" y="185" />
            </Array>
          </mxGeometry>
        </mxCell>
        <mxCell id="DnV5dPx3yKDnzfPeq301-12" style="edgeStyle=orthogonalEdgeStyle;rounded=0;orthogonalLoop=1;jettySize=auto;html=1;entryX=0.5;entryY=0;entryDx=0;entryDy=0;fontSize=14;endArrow=none;endFill=0;" edge="1" parent="1" source="DnV5dPx3yKDnzfPeq301-1" target="DnV5dPx3yKDnzfPeq301-2">
          <mxGeometry relative="1" as="geometry">
            <Array as="points">
              <mxPoint x="440" y="185" />
              <mxPoint x="170" y="185" />
            </Array>
          </mxGeometry>
        </mxCell>
        <mxCell id="DnV5dPx3yKDnzfPeq301-1" value="&lt;font face=&quot;Times New Roman&quot; style=&quot;font-size: 18px;&quot;&gt;OS&lt;/font&gt;" style="rounded=0;whiteSpace=wrap;html=1;" vertex="1" parent="1">
          <mxGeometry x="380" y="80" width="120" height="60" as="geometry" />
        </mxCell>
        <mxCell id="DnV5dPx3yKDnzfPeq301-25" style="edgeStyle=orthogonalEdgeStyle;rounded=0;orthogonalLoop=1;jettySize=auto;html=1;entryX=0.5;entryY=0;entryDx=0;entryDy=0;fontSize=14;endArrow=none;endFill=0;" edge="1" parent="1" source="DnV5dPx3yKDnzfPeq301-2" target="DnV5dPx3yKDnzfPeq301-14">
          <mxGeometry relative="1" as="geometry" />
        </mxCell>
        <mxCell id="DnV5dPx3yKDnzfPeq301-26" style="edgeStyle=orthogonalEdgeStyle;rounded=0;orthogonalLoop=1;jettySize=auto;html=1;entryX=0.5;entryY=0;entryDx=0;entryDy=0;fontSize=14;endArrow=none;endFill=0;" edge="1" parent="1" source="DnV5dPx3yKDnzfPeq301-2" target="DnV5dPx3yKDnzfPeq301-15">
          <mxGeometry relative="1" as="geometry" />
        </mxCell>
        <mxCell id="DnV5dPx3yKDnzfPeq301-27" style="edgeStyle=orthogonalEdgeStyle;rounded=0;orthogonalLoop=1;jettySize=auto;html=1;entryX=0.5;entryY=0;entryDx=0;entryDy=0;fontSize=14;endArrow=none;endFill=0;" edge="1" parent="1" source="DnV5dPx3yKDnzfPeq301-2" target="DnV5dPx3yKDnzfPeq301-16">
          <mxGeometry relative="1" as="geometry" />
        </mxCell>
        <mxCell id="DnV5dPx3yKDnzfPeq301-28" style="edgeStyle=orthogonalEdgeStyle;rounded=0;orthogonalLoop=1;jettySize=auto;html=1;entryX=0.5;entryY=0;entryDx=0;entryDy=0;fontSize=14;endArrow=none;endFill=0;" edge="1" parent="1" source="DnV5dPx3yKDnzfPeq301-2" target="DnV5dPx3yKDnzfPeq301-17">
          <mxGeometry relative="1" as="geometry" />
        </mxCell>
        <mxCell id="DnV5dPx3yKDnzfPeq301-2" value="&lt;font style=&quot;font-size: 14px;&quot;&gt;任务调度模块&lt;/font&gt;" style="rounded=0;whiteSpace=wrap;html=1;flipV=0;flipH=1;" vertex="1" parent="1">
          <mxGeometry x="100" y="230" width="140" height="40" as="geometry" />
        </mxCell>
        <mxCell id="DnV5dPx3yKDnzfPeq301-29" style="edgeStyle=orthogonalEdgeStyle;rounded=0;orthogonalLoop=1;jettySize=auto;html=1;entryX=0.5;entryY=0;entryDx=0;entryDy=0;fontSize=14;endArrow=none;endFill=0;" edge="1" parent="1" source="DnV5dPx3yKDnzfPeq301-4" target="DnV5dPx3yKDnzfPeq301-18">
          <mxGeometry relative="1" as="geometry" />
        </mxCell>
        <mxCell id="DnV5dPx3yKDnzfPeq301-30" style="edgeStyle=orthogonalEdgeStyle;rounded=0;orthogonalLoop=1;jettySize=auto;html=1;entryX=0.5;entryY=0;entryDx=0;entryDy=0;fontSize=14;endArrow=none;endFill=0;" edge="1" parent="1" source="DnV5dPx3yKDnzfPeq301-4" target="DnV5dPx3yKDnzfPeq301-19">
          <mxGeometry relative="1" as="geometry" />
        </mxCell>
        <mxCell id="DnV5dPx3yKDnzfPeq301-4" value="&lt;font style=&quot;font-size: 14px;&quot;&gt;内存管理模块&lt;/font&gt;" style="rounded=0;whiteSpace=wrap;html=1;flipV=0;flipH=1;" vertex="1" parent="1">
          <mxGeometry x="280" y="230" width="140" height="40" as="geometry" />
        </mxCell>
        <mxCell id="DnV5dPx3yKDnzfPeq301-31" style="edgeStyle=orthogonalEdgeStyle;rounded=0;orthogonalLoop=1;jettySize=auto;html=1;entryX=0.5;entryY=0;entryDx=0;entryDy=0;fontSize=14;endArrow=none;endFill=0;" edge="1" parent="1" source="DnV5dPx3yKDnzfPeq301-5" target="DnV5dPx3yKDnzfPeq301-20">
          <mxGeometry relative="1" as="geometry" />
        </mxCell>
        <mxCell id="DnV5dPx3yKDnzfPeq301-32" style="edgeStyle=orthogonalEdgeStyle;rounded=0;orthogonalLoop=1;jettySize=auto;html=1;entryX=0.5;entryY=0;entryDx=0;entryDy=0;fontSize=14;endArrow=none;endFill=0;" edge="1" parent="1" source="DnV5dPx3yKDnzfPeq301-5" target="DnV5dPx3yKDnzfPeq301-21">
          <mxGeometry relative="1" as="geometry" />
        </mxCell>
        <mxCell id="DnV5dPx3yKDnzfPeq301-33" style="edgeStyle=orthogonalEdgeStyle;rounded=0;orthogonalLoop=1;jettySize=auto;html=1;entryX=0.5;entryY=0;entryDx=0;entryDy=0;fontSize=14;endArrow=none;endFill=0;" edge="1" parent="1" source="DnV5dPx3yKDnzfPeq301-5" target="DnV5dPx3yKDnzfPeq301-22">
          <mxGeometry relative="1" as="geometry" />
        </mxCell>
        <mxCell id="DnV5dPx3yKDnzfPeq301-5" value="&lt;font style=&quot;font-size: 14px;&quot;&gt;文件系统模块&lt;/font&gt;" style="rounded=0;whiteSpace=wrap;html=1;flipV=0;flipH=0;" vertex="1" parent="1">
          <mxGeometry x="460" y="230" width="140" height="40" as="geometry" />
        </mxCell>
        <mxCell id="DnV5dPx3yKDnzfPeq301-34" style="edgeStyle=orthogonalEdgeStyle;rounded=0;orthogonalLoop=1;jettySize=auto;html=1;entryX=0.5;entryY=0;entryDx=0;entryDy=0;fontSize=14;endArrow=none;endFill=0;" edge="1" parent="1" source="DnV5dPx3yKDnzfPeq301-6" target="DnV5dPx3yKDnzfPeq301-24">
          <mxGeometry relative="1" as="geometry" />
        </mxCell>
        <mxCell id="DnV5dPx3yKDnzfPeq301-35" style="edgeStyle=orthogonalEdgeStyle;rounded=0;orthogonalLoop=1;jettySize=auto;html=1;fontSize=14;endArrow=none;endFill=0;" edge="1" parent="1" source="DnV5dPx3yKDnzfPeq301-6" target="DnV5dPx3yKDnzfPeq301-23">
          <mxGeometry relative="1" as="geometry" />
        </mxCell>
        <mxCell id="DnV5dPx3yKDnzfPeq301-6" value="&lt;font style=&quot;font-size: 14px;&quot;&gt;用户接口&lt;/font&gt;" style="rounded=0;whiteSpace=wrap;html=1;flipV=0;flipH=0;" vertex="1" parent="1">
          <mxGeometry x="640" y="230" width="140" height="40" as="geometry" />
        </mxCell>
        <mxCell id="DnV5dPx3yKDnzfPeq301-14" value="进程创建" style="rounded=0;whiteSpace=wrap;html=1;fontSize=14;fontStyle=0" vertex="1" parent="1">
          <mxGeometry x="115" y="345" width="20" height="120" as="geometry" />
        </mxCell>
        <mxCell id="DnV5dPx3yKDnzfPeq301-15" value="线程创建" style="rounded=0;whiteSpace=wrap;html=1;fontSize=14;fontStyle=0" vertex="1" parent="1">
          <mxGeometry x="145" y="345" width="20" height="120" as="geometry" />
        </mxCell>
        <mxCell id="DnV5dPx3yKDnzfPeq301-16" value="可执行文件加载" style="rounded=0;whiteSpace=wrap;html=1;fontSize=14;fontStyle=0" vertex="1" parent="1">
          <mxGeometry x="175" y="345" width="20" height="120" as="geometry" />
        </mxCell>
        <mxCell id="DnV5dPx3yKDnzfPeq301-17" value="任务调度" style="rounded=0;whiteSpace=wrap;html=1;fontSize=14;fontStyle=0" vertex="1" parent="1">
          <mxGeometry x="205" y="345" width="20" height="120" as="geometry" />
        </mxCell>
        <mxCell id="DnV5dPx3yKDnzfPeq301-18" value="内存分配" style="rounded=0;whiteSpace=wrap;html=1;fontSize=14;fontStyle=0" vertex="1" parent="1">
          <mxGeometry x="315" y="345" width="20" height="120" as="geometry" />
        </mxCell>
        <mxCell id="DnV5dPx3yKDnzfPeq301-19" value="内存回收" style="rounded=0;whiteSpace=wrap;html=1;fontSize=14;fontStyle=0" vertex="1" parent="1">
          <mxGeometry x="365" y="345" width="20" height="120" as="geometry" />
        </mxCell>
        <mxCell id="DnV5dPx3yKDnzfPeq301-20" value="文件打开与关闭" style="rounded=0;whiteSpace=wrap;html=1;fontSize=14;fontStyle=0" vertex="1" parent="1">
          <mxGeometry x="482" y="345" width="20" height="120" as="geometry" />
        </mxCell>
        <mxCell id="DnV5dPx3yKDnzfPeq301-21" value="文件创建与删除" style="rounded=0;whiteSpace=wrap;html=1;fontSize=14;fontStyle=0" vertex="1" parent="1">
          <mxGeometry x="520" y="345" width="20" height="120" as="geometry" />
        </mxCell>
        <mxCell id="DnV5dPx3yKDnzfPeq301-22" value="文件读写" style="rounded=0;whiteSpace=wrap;html=1;fontSize=14;fontStyle=0" vertex="1" parent="1">
          <mxGeometry x="562" y="345" width="20" height="120" as="geometry" />
        </mxCell>
        <mxCell id="DnV5dPx3yKDnzfPeq301-23" value="系统调用" style="rounded=0;whiteSpace=wrap;html=1;fontSize=14;fontStyle=0" vertex="1" parent="1">
          <mxGeometry x="725" y="345" width="20" height="120" as="geometry" />
        </mxCell>
        <mxCell id="DnV5dPx3yKDnzfPeq301-24" value="键盘与显示驱动" style="rounded=0;whiteSpace=wrap;html=1;fontSize=14;fontStyle=0" vertex="1" parent="1">
          <mxGeometry x="675" y="345" width="20" height="120" as="geometry" />
        </mxCell>
      </root>
    </mxGraphModel>
  </diagram>
</mxfile>
